<svg xmlns="http://www.w3.org/2000/svg" version="1.1" xmlns:xlink="http://www.w3.org/1999/xlink" width="512" height="512" x="0" y="0" viewBox="0 0 1707 1707" style="enable-background:new 0 0 512 512" xml:space="preserve" fill-rule="evenodd" class=""><g><path d="M1140 1707H562c-32 0-57-26-57-58 0-28-5-58 8-67 75-50 75-167 0-217-13-10-8-39-8-67 0-32 25-58 57-58h578c32 0 58 26 58 58 0 27 5 60-9 70-68 50-68 161 0 211 14 10 9 42 9 70 0 32-26 58-58 58zm-596-98c0 26-6 58 18 58h578c24 0 17-33 17-62-79-66-79-196 0-263 0-29 7-62-17-62H562c-24 0-18 32-18 58 86 66 86 204 0 271z" fill="#000000" opacity="1" data-original="#000000"></path><path d="M793 1593c-12 0-20-9-20-20v-200c0-26 40-26 40 0v200c0 11-10 20-20 20zm-117 0c-11 0-20-9-20-20v-200c0-26 40-26 40 0v200c0 11-9 20-20 20z" fill="#000000" opacity="1" data-original="#000000"></path><path d="M793 1493H676c-26 0-26-40 0-40h117c26 0 26 40 0 40zM973 1498c-99 0-82 19-82-125 0-28 43-20 82-20 96 0 96 145 0 145zm-42-40c28 0 75 8 75-32s-47-33-75-33z" fill="#000000" opacity="1" data-original="#000000"></path><path d="M911 1593c-11 0-20-9-20-20v-95c0-26 40-26 40 0v95c0 11-9 20-20 20zM1011 1593c-7 0-13-3-17-10l-55-95c-13-22 22-43 35-20l55 95c7 14-2 30-18 30zM1010 1013c-11 0-20-9-20-20V847c0-26 40-26 40 0v146c0 11-9 20-20 20zm-313 0c-11 0-20-9-20-20V847c0-26 40-26 40 0v146c0 11-9 20-20 20z" fill="#000000" opacity="1" data-original="#000000"></path><path d="M853 1189c-4 0-8-1-11-4l-251-170c-22-15 1-46 23-33l239 163 240-163c5-4 10-4 14-3 15 3 25 24 8 36l-250 171c-4 2-8 3-12 3z" fill="#000000" opacity="1" data-original="#000000"></path><path d="M1010 1013c-21 0-28-27-10-37l253-142c-62-165-24-299-18-320 20-254-105-371-181-418-122-75-279-75-401 0-77 47-201 164-182 418 7 21 45 154-17 320l253 142c23 13 3 48-20 35L419 860c-9-5-13-16-9-25 71-173 22-307 22-315-17-203 56-370 200-458 134-83 308-83 443 0 143 88 216 255 200 458-1 5-49 144 22 315 3 9 0 20-9 25-32 18-265 153-278 153z" fill="#000000" opacity="1" data-original="#000000"></path><path d="M954 252c-17 0-26-18-16-32 97-129 12-175 53-192 44-18 61 114-22 217-4 5-10 7-15 7z" fill="#000000" opacity="1" data-original="#000000"></path><path d="M853 879c-179 0-325-166-325-371 0-16-2-109 2-117 85-206 212 13 410-173 9-9 24-7 31 4 27 46 119 176 185 167 12-1 23 8 23 20v99c-1 205-146 371-326 371zM568 402v106c0 182 128 330 285 330 158 0 285-148 285-330v-79c-80-9-158-118-189-166-200 170-314-19-381 139z" fill="#000000" opacity="1" data-original="#000000"></path><path d="M772 519c-3 0-46-14-71-2-24 11-41-26-17-37 30-13 124-13 106 27-3 7-10 12-18 12zM1014 519c-3 0-46-14-71-2-24 11-41-26-17-37 30-13 124-12 106 27-3 7-11 12-18 12zM854 727c-54 0-127-38-100-66 8-8 21-8 29-1 37 36 104 36 141 0 19-18 47 11 28 30-26 24-62 37-98 37zM1010 1013c-11 0-20-9-20-20V809c0-27 40-27 40 0v184c0 11-9 20-20 20zm-313 0c-11 0-20-9-20-20V809c0-27 40-27 40 0v184c0 11-9 20-20 20zM445 1643H329c-51 0-92-42-92-92v-155c0-51 41-92 92-92h116c90 0 164 74 164 164v11c0 90-74 164-164 164zm-116-299c-29 0-52 23-52 52 0 229-25 207 168 207 68 0 124-56 124-124v-11c0-68-56-124-124-124zM1378 1643h-116c-90 0-164-74-164-164v-11c0-90 74-164 164-164h116c51 0 92 41 92 92v155c0 50-41 92-92 92zm-116-299c-68 0-124 56-124 124v11c0 68 56 124 124 124 192 0 168 22 168-207 0-29-23-52-52-52z" fill="#000000" opacity="1" data-original="#000000"></path><path fill="#333333" d="m1030 959 223-125c-62-165-24-299-18-320 20-254-105-371-181-418l-27-15c2 42-11 100-49 153 33 53 117 164 178 155 12-1 23 8 23 20v99c-1 131-60 245-149 311v28z" opacity="1" data-original="#333333"></path><path fill="#ff9e7c" d="M990 973V844c-42 22-88 35-137 35-48 0-95-13-136-35v129zM1046 1014H661l192 131z" opacity="1" data-original="#ff9e7c"></path><path fill="#333333" d="M677 959V819c-89-66-149-180-149-311 0-16-2-109 2-117 84-206 211 12 409-172 60-81 49-129 43-157-108-38-230-26-329 34-77 47-201 164-182 418 7 21 45 154-17 320z" opacity="1" data-original="#333333"></path><path fill="#ffaf8a" d="M711 795c42 28 91 43 142 43 52 0 100-16 142-43 2-2 4-3 5-4 83-58 138-163 138-283v-79c-80-9-158-118-189-166-200 170-314-19-381 139v106c0 120 56 225 138 283 2 1 4 2 5 4zm143-68c-54 0-127-38-100-66 8-8 21-8 29-1 37 36 104 36 141 0 19-18 47 11 28 30-26 24-62 37-98 37zm-82-208c-3 0-46-14-71-2-24 11-41-26-17-37 30-13 124-13 106 27-3 7-10 12-18 12zm171-2c-24 11-41-26-17-37 30-13 124-12 106 27-3 7-11 12-18 12-3 0-46-14-71-2z" opacity="1" data-original="#ffaf8a"></path><path fill="#c33f69" d="m1108 1020-243 166c-4 2-8 3-12 3s-8-1-11-4l-244-166c-134 24-303 120-304 228v64c11-5 23-7 35-7h116c21 0 41 4 59 11 0-6 1-11 1-17 0-32 25-58 57-58h578c32 0 58 26 58 58v19c20-8 41-13 64-13h116c12 0 24 2 34 7v-62c-17-110-179-205-304-229z" opacity="1" data-original="#c33f69"></path><path fill="#fc5185" d="M1140 1280H562c-23 0-18 32-18 58 37 28 62 72 64 122 1 9 1 18 0 27v1c-2 49-27 92-64 121 0 26-5 58 18 58h578c24 0 17-33 17-62-34-29-56-71-59-118v-26c2-48 25-90 59-119 0-29 7-62-17-62zm-150 217 39 66c7 14-2 30-18 30-7 0-13-3-17-10l-49-84h-14v74c0 11-9 20-20 20s-20-9-20-20v-95c-2-18 0-49 0-105 0-28 43-20 82-20 90 0 95 127 17 144zm-177-124v200c0 11-10 20-20 20-12 0-20-9-20-20v-80h-77v80c0 11-9 20-20 20s-20-9-20-20v-200c0-26 40-26 40 0v80h77v-80c0-26 40-26 40 0z" opacity="1" data-original="#fc5185"></path><path fill="#ff9e7c" d="M569 1468c0-4-1-8-1-12-4-28-16-56-37-77-22-22-53-35-86-35H329c-16 0-29 7-39 17 0 1-1 2-2 2-7 9-11 21-11 33 0 229-25 207 168 207 25 0 48-8 67-20l1-1c33-22 51-56 55-92 0-4 1-7 1-11z" opacity="1" data-original="#ff9e7c"></path><path fill="#fc5185" d="M931 1393v65c7 0 14 1 22 1 3-1 6-1 9 0 22-1 44-6 44-33 0-40-47-33-75-33z" opacity="1" data-original="#fc5185"></path><path fill="#ff9e7c" d="M1189 1368c-32 23-49 60-51 98v15c2 37 19 74 51 98 1 0 1 0 1 1 20 14 45 23 72 23 192 0 168 22 168-207 0-29-23-52-52-52h-116c-26 0-51 8-71 22 0 1-1 1-2 2z" opacity="1" data-original="#ff9e7c"></path><path d="M274 1369c-11 0-20-9-20-20v-102c1-158 264-274 401-274h396c150 0 391 130 401 274l1 102c0 27-40 27-40 1l-1-101c-20-128-235-235-361-235H655c-135 0-360 109-361 233v103c0 11-9 19-20 19z" fill="#000000" opacity="1" data-original="#000000"></path></g></svg>